<svg xmlns="http://www.w3.org/2000/svg" xmlns:xlink="http://www.w3.org/1999/xlink" version="1.1" id="Layer_1" x="0px" y="0px" viewBox="0 0 169.5 60.5" enable-background="new 0 0 169.5 60.5" xml:space="preserve">
<path fill="#FFFFFF" d="M168 9.5C162.3 3 154.7 0 145.6 0C128 0 115 13.5 115 30.3c0 7.7 2.8 14.7 7.4 20.1 c5.5 6.2 13.6 10.1 23.1 10.1c10 0 17.7-4 23.9-10.9l-6.7-5.9c-4.1 5.3-9.8 8.8-17.2 8.8c-6.4 0-11.8-2.5-15.6-6.7 c-3.5-4-5.7-9.5-5.7-15.5C124.3 17.7 133 8 145.6 8c6.5 0 11.9 3 15.7 7.5L168 9.5z M55.2 59.8l21.9-40.3v40.3h7.8l33.5-59.1h-10.1 L85.6 43.1l0.2-42.4h-7.2L56.4 41.8l0.4-41.1h-9.4v59.1H55.2z M17.7 41.1c14.5 0 21.3-8.9 21.3-20.2C39 9.8 32.2 0.7 17.7 0.7H0 v59.1h9.3V41.1H17.7z M17.7 8.7c8.9 0 12 5.5 12 12.2c0 6.9-3 12.2-12 12.2H9.3V8.7H17.7z"/>
</svg>
